<svg width="76" height="76" viewBox="0 0 76 76" fill="none" xmlns="http://www.w3.org/2000/svg">
<path d="M38 38C52.4284 38 64.125 31.6201 64.125 23.75C64.125 15.8799 52.4284 9.5 38 9.5C23.5716 9.5 11.875 15.8799 11.875 23.75C11.875 31.6201 23.5716 38 38 38Z" stroke="#E0A743" stroke-width="3" stroke-linecap="round" stroke-linejoin="round"/>
<path d="M11.875 23.75V38C11.875 45.8701 23.5716 52.25 38 52.25C52.4284 52.25 64.125 45.8701 64.125 38V23.75" stroke="#E0A743" stroke-width="3" stroke-linecap="round" stroke-linejoin="round"/>
<path d="M11.875 38V52.25C11.875 60.1201 23.5716 66.5 38 66.5C52.4284 66.5 64.125 60.1201 64.125 52.25V38" stroke="#E0A743" stroke-width="3" stroke-linecap="round" stroke-linejoin="round"/>
</svg>
