<?xml version="1.0" encoding="UTF-8"?>
<svg id="Capa_2" data-name="Capa 2" xmlns="http://www.w3.org/2000/svg" viewBox="0 0 1530.7 273.18">
  <defs>
    <style>
      .cls-1 {
        fill: #c5a572;
      }

      .cls-2 {
        fill: #faf6f3;
      }

      .cls-3 {
        fill: #8a1812;
      }
    </style>
  </defs>
  <g id="Capa_1-2" data-name="Capa 1">
    <g>
      <path class="cls-3" d="M40,0h723.99v233.18c0,22.08-17.92,40-40,40H0V40C0,17.92,17.92,0,40,0Z"/>
      <g>
        <path class="cls-3" d="M1127.85,72.88h-22.16v-22.16h22.16v22.16ZM1152.78,75.65h-22.16v22.16h22.16v-22.16ZM1177.71,125.51h-22.16v22.16h22.16v-22.16ZM1202.64,175.37h-22.16v22.16h22.16v-22.16ZM1227.57,50.71h-22.16v22.16h22.16v-22.16ZM1202.64,75.65h-22.16v22.16h22.16v-22.16ZM1177.71,100.58h-22.16v22.16h22.16v-22.16ZM1127.85,200.3h-22.16v22.15h22.16v-22.15ZM1152.78,175.37h-22.16v22.16h22.16v-22.16ZM1177.71,150.44h-22.16v22.16h22.16v-22.16ZM1227.57,200.3h-22.16v22.15h22.16v-22.15Z"/>
        <path class="cls-3" d="M1304.34,147.67h-22.16v-22.16h22.16v22.16ZM1329.28,125.51h-22.16v22.16h22.16v-22.16ZM1354.21,125.51h-22.16v22.16h22.16v-22.16ZM1304.34,200.3h-22.16v22.16h22.16v-22.16ZM1279.41,200.3h-22.16v22.16h22.16v-22.16ZM1279.41,100.58h-22.16v22.16h22.16v-22.16ZM1279.41,75.65h-22.16v22.16h22.16v-22.16ZM1304.34,50.71h-22.16v22.16h22.16v-22.16ZM1279.41,50.71h-22.16v22.16h22.16v-22.16ZM1329.28,200.3h-22.16v22.16h22.16v-22.16ZM1329.28,50.71h-22.16v22.16h22.16v-22.16ZM1354.21,200.3h-22.16v22.16h22.16v-22.16ZM1354.21,50.71h-22.16v22.16h22.16v-22.16ZM1379.14,200.3h-22.16v22.16h22.16v-22.16ZM1379.14,50.71h-22.16v22.16h22.16v-22.16ZM1279.41,150.44h-22.16v22.16h22.16v-22.16ZM1279.41,175.37h-22.16v22.16h22.16v-22.16ZM1279.41,200.3h-22.16v22.16h22.16v-22.16ZM1279.41,125.51h-22.16v22.16h22.16v-22.16Z"/>
        <path class="cls-3" d="M1430.98,122.74h-22.16v-22.16h22.16v22.16ZM1430.98,75.65h-22.16v22.16h22.16v-22.16ZM1430.98,150.44h-22.16v22.16h22.16v-22.16ZM1430.98,175.37h-22.16v22.16h22.16v-22.16ZM1430.98,200.3h-22.16v22.16h22.16v-22.16ZM1430.98,125.51h-22.16v22.16h22.16v-22.16ZM1430.98,50.71h-22.16v22.16h22.16v-22.16ZM1455.91,200.3h-22.16v22.16h22.16v-22.16ZM1480.84,200.3h-22.16v22.16h22.16v-22.16ZM1505.77,200.3h-22.16v22.16h22.16v-22.16ZM1530.7,200.3h-22.16v22.16h22.16v-22.16ZM1530.7,175.37h-22.16v22.16h22.16v-22.16Z"/>
        <path class="cls-3" d="M1026.15,122.74h-22.16v-22.16h22.16v22.16ZM1026.15,75.65h-22.16v22.16h22.16v-22.16ZM1026.15,150.44h-22.16v22.16h22.16v-22.16ZM1026.15,175.37h-22.16v22.16h22.16v-22.16ZM1026.15,200.3h-22.16v22.16h22.16v-22.16ZM1026.15,125.51h-22.16v22.16h22.16v-22.16ZM1001.22,50.71h-22.16v22.16h22.16v-22.16ZM1026.15,50.71h-22.16v22.16h22.16v-22.16ZM1051.08,50.71h-22.16v22.16h22.16v-22.16ZM976.29,50.71h-22.16v22.16h22.16v-22.16ZM1001.22,200.3h-22.16v22.16h22.16v-22.16ZM1026.15,200.3h-22.16v22.16h22.16v-22.16ZM1051.08,200.3h-22.16v22.16h22.16v-22.16ZM1076.01,50.71h-22.16v22.16h22.16v-22.16ZM1076.01,200.3h-22.16v22.16h22.16v-22.16ZM976.29,200.3h-22.16v22.16h22.16v-22.16Z"/>
        <path class="cls-3" d="M849.65,72.87h-22.16v-22.16h22.16v22.16ZM874.58,50.71h-22.16v22.16h22.16v-22.16ZM899.51,50.71h-22.16v22.16h22.16v-22.16ZM849.65,125.5h-22.16v22.17h22.16v-22.17ZM874.58,125.5h-22.16v22.17h22.16v-22.17ZM899.51,125.5h-22.16v22.17h22.16v-22.17ZM924.45,100.57h-22.16v22.16h22.16v-22.16ZM924.45,75.64h-22.16v22.16h22.16v-22.16ZM824.72,100.57h-22.16v22.16h22.16v-22.16ZM824.72,75.64h-22.16v22.16h22.16v-22.16ZM824.72,50.71h-22.16v22.16h22.16v-22.16ZM824.72,150.44h-22.16v22.16h22.16v-22.16ZM824.72,175.37h-22.16v22.16h22.16v-22.16ZM824.72,175.37h-22.16v22.16h22.16v-22.16ZM824.72,200.3h-22.16v22.16h22.16v-22.16ZM824.72,125.5h-22.16v22.17h22.16v-22.17Z"/>
      </g>
      <g>
        <path class="cls-2" d="M34.68,184.56h37.66c9.95,0,17.77-7.46,17.77-18.48v-57.21c0-19.54,15.28-36.95,37.66-36.95h28.78v18.48h-27.71c-10.3,0-17.77,7.46-17.77,18.48v57.21c0,19.54-15.28,36.95-37.66,36.95h-38.73v-18.48Z"/>
        <path class="cls-2" d="M169.86,201.26h18.5v-100.84h-18.5v100.84ZM169.86,71.92v18.5h18.5v-18.5h-18.5Z"/>
        <path class="cls-2" d="M213.75,71.92h113.7v18.48h-92.74v36.95h91.32v18.48h-91.32v36.95h92.74v18.48h-113.7V71.92Z"/>
        <path class="cls-2" d="M349.48,71.92h76.04c22.39,0,37.31,16.7,37.31,36.95,0,15.63-9.24,29.49-23.81,34.82l23.81,57.56h-21.67l-23.1-55.43h-47.61v55.43h-20.96V71.92ZM423.39,127.35c11.02,0,18.48-7.46,18.48-18.48s-7.46-18.48-18.48-18.48h-52.94v36.95h52.94Z"/>
        <path class="cls-2" d="M482.36,71.92h76.04c22.38,0,37.31,16.7,37.31,36.95,0,15.63-9.24,29.49-23.81,34.82l23.81,57.56h-21.67l-23.1-55.43h-47.61v55.43h-20.96V71.92ZM556.27,127.35c11.02,0,18.48-7.46,18.48-18.48s-7.46-18.48-18.48-18.48h-52.94v36.95h52.94Z"/>
        <path class="cls-2" d="M615.96,126.64c0-34.11,26.29-56.5,57.92-56.5s55.43,22.38,55.43,56.5v74.62h-20.96v-18.48h-71.42v18.48h-20.96v-74.62ZM708.34,164.3v-39.44c0-20.25-15.28-35.89-35.53-35.89s-35.89,15.63-35.89,35.89v39.44h71.42Z"/>
      </g>
      <rect class="cls-1" x="169.86" y="71.92" width="18.5" height="18.5"/>
      <rect class="cls-1" x="34.68" y="147.56" width="18.5" height="18.5"/>
    </g>
  </g>
</svg>