<svg width="48" height="48" viewBox="0 0 48 48" fill="none" xmlns="http://www.w3.org/2000/svg">
<path d="M7.01062 8.91828L17.9991 40.6627C18.1025 40.9616 18.2979 41.2202 18.5571 41.4014C18.8164 41.5826 19.1263 41.6773 19.4426 41.6718C19.7589 41.6663 20.0653 41.5609 20.3181 41.3708C20.5709 41.1807 20.7572 40.9155 20.8502 40.6131L25.2669 26.2589C25.3388 26.0251 25.4669 25.8124 25.6399 25.6394C25.8129 25.4664 26.0256 25.3383 26.2594 25.2664L40.6136 20.8497C40.916 20.7567 41.1812 20.5705 41.3713 20.3177C41.5614 20.0648 41.6668 19.7584 41.6723 19.4421C41.6778 19.1258 41.5831 18.8159 41.4019 18.5566C41.2206 18.2974 40.9621 18.1021 40.6632 17.9986L8.91877 7.01013C8.65276 6.91805 8.3662 6.90268 8.09187 6.96578C7.81753 7.02888 7.56649 7.1679 7.36744 7.36695C7.16839 7.566 7.02937 7.81704 6.96627 8.09138C6.90317 8.36571 6.91854 8.65227 7.01062 8.91828V8.91828Z" stroke="#E0A743" stroke-width="3" stroke-linecap="round" stroke-linejoin="round"/>
</svg>
