<svg width="76" height="76" viewBox="0 0 76 76" fill="none" xmlns="http://www.w3.org/2000/svg">
<path d="M38.0018 45.126V73.626" stroke="#E0A743" stroke-width="3" stroke-linecap="round" stroke-linejoin="round"/>
<path d="M38.0018 45.126C41.281 45.126 43.9393 42.4677 43.9393 39.1885C43.9393 35.9093 41.281 33.251 38.0018 33.251C34.7226 33.251 32.0643 35.9093 32.0643 39.1885C32.0643 42.4677 34.7226 45.126 38.0018 45.126Z" stroke="#E0A743" stroke-width="3" stroke-linecap="round" stroke-linejoin="round"/>
<path d="M21.3767 21.376V9.50098C21.3767 8.87109 21.6269 8.267 22.0723 7.8216C22.5177 7.3762 23.1218 7.12598 23.7517 7.12598H52.2517C52.8816 7.12598 53.4857 7.3762 53.9311 7.8216C54.3765 8.267 54.6267 8.87109 54.6267 9.50098V21.376" stroke="#E0A743" stroke-width="3" stroke-linecap="round" stroke-linejoin="round"/>
<path d="M21.3767 21.376L13.2463 37.832C13.0534 38.2225 12.9716 38.6585 13.0098 39.0924C13.048 39.5262 13.2048 39.9412 13.463 40.292L38.0017 73.626L62.5404 40.2919C62.7986 39.9411 62.9553 39.5261 62.9936 39.0922C63.0318 38.6584 62.9499 38.2224 62.757 37.8319L54.6267 21.376H21.3767Z" stroke="#E0A743" stroke-width="3" stroke-linecap="round" stroke-linejoin="round"/>
</svg>
