<svg width="48" height="48" viewBox="0 0 48 48" fill="none" xmlns="http://www.w3.org/2000/svg">
<path d="M24 42C33.9411 42 42 33.9411 42 24C42 14.0589 33.9411 6 24 6C14.0589 6 6 14.0589 6 24C6 33.9411 14.0589 42 24 42Z" stroke="#E0A743" stroke-width="3" stroke-linecap="round" stroke-linejoin="round"/>
<path d="M31.7959 28.4993C31.0052 29.8669 29.8686 31.0025 28.5002 31.792C27.1318 32.5815 25.5798 32.9971 24 32.9971C22.4202 32.9971 20.8683 32.5815 19.4999 31.7921C18.1315 31.0026 16.9948 29.867 16.2041 28.4994" stroke="#E0A743" stroke-width="2" stroke-linecap="round" stroke-linejoin="round"/>
<path d="M17.25 22.5C18.4926 22.5 19.5 21.4926 19.5 20.25C19.5 19.0074 18.4926 18 17.25 18C16.0074 18 15 19.0074 15 20.25C15 21.4926 16.0074 22.5 17.25 22.5Z" fill="#E0A743"/>
<path d="M28.5 20.25H33" stroke="#E0A743" stroke-width="2" stroke-linecap="round" stroke-linejoin="round"/>
</svg>
